<svg width="8" height="22" viewBox="0 0 8 22" fill="none" xmlns="http://www.w3.org/2000/svg">
<path d="M3.51367 21.4606C3.51367 21.7368 3.73753 21.9606 4.01367 21.9606C4.28981 21.9606 4.51367 21.7368 4.51367 21.4606H3.51367ZM4.36723 0.184044C4.17196 -0.0112179 3.85538 -0.0112179 3.66012 0.184044L0.478138 3.36602C0.282876 3.56129 0.282876 3.87787 0.478138 4.07313C0.6734 4.26839 0.989983 4.26839 1.18524 4.07313L4.01367 1.2447L6.8421 4.07313C7.03736 4.26839 7.35394 4.26839 7.54921 4.07313C7.74447 3.87787 7.74447 3.56129 7.54921 3.36602L4.36723 0.184044ZM4.51367 21.4606V0.537598H3.51367V21.4606H4.51367Z" fill="black" fill-opacity="0.4"/>
</svg>
